# xmcd
#
# Track frame offsets: 
#        150
#        21096
#        45028
#        86906
#        120651
#        161686
#        196816
#        245516
#        279265
#
# Disc length: 4275 seconds
#
# Revision: 5
# Processed by: cddbd v1.5.2PL0 Copyright (c) Steve Scherf et al.
# Submitted via: ExactAudioCopyFreeDBPlugin 1.0
#
DISCID=6a10b109
DTITLE=Michel Petrucciani - Trio in Tokyo  { Steve Gadd, drums - Antho
DTITLE=ny Jackson, bass }
DYEAR=1997
DGENRE=Jazz
TTITLE0=Training
TTITLE1=September Second
TTITLE2=Home
TTITLE3=Little Peace in C For U
TTITLE4=Love Letter
TTITLE5=Cantabile
TTITLE6=Colors
TTITLE7=So What
TTITLE8=Take The 'A' Train
EXTD=YEAR: 1997
EXTT0=
EXTT1=
EXTT2=
EXTT3=
EXTT4=
EXTT5=
EXTT6=
EXTT7=
EXTT8=
PLAYORDER=
